<svg xmlns="http://www.w3.org/2000/svg" xmlns:xlink="http://www.w3.org/1999/xlink" viewBox="0 0 363.26 104.46"><defs><style>.cls-1{fill:url(#linear-gradient);}.cls-2{fill:url(#linear-gradient-2);}.cls-3{fill:url(#linear-gradient-3);}.cls-4{fill:#5975ff;}.cls-5{fill:#202b44;}</style><linearGradient id="linear-gradient" x1="28.04" y1="92.93" x2="49.28" y2="58.76" gradientUnits="userSpaceOnUse"><stop offset="0.3" stop-color="#5975ff"/><stop offset="0.44" stop-color="#5773fb"/><stop offset="0.57" stop-color="#526df0"/><stop offset="0.7" stop-color="#4a64dc"/><stop offset="0.83" stop-color="#3e57c1"/><stop offset="0.96" stop-color="#2f469e"/><stop offset="1" stop-color="#293f91"/></linearGradient><linearGradient id="linear-gradient-2" x1="24.55" y1="57.14" x2="60.56" y2="57.14" gradientUnits="userSpaceOnUse"><stop offset="0" stop-color="#293f91"/><stop offset="0.07" stop-color="#364dae"/><stop offset="0.17" stop-color="#435bcc"/><stop offset="0.27" stop-color="#4c66e2"/><stop offset="0.37" stop-color="#546ef2"/><stop offset="0.49" stop-color="#5873fc"/><stop offset="0.65" stop-color="#5974ff"/></linearGradient><linearGradient id="linear-gradient-3" x1="35.54" y1="20.68" x2="13.33" y2="58.97" gradientUnits="userSpaceOnUse"><stop offset="0.49" stop-color="#5959ff"/><stop offset="0.57" stop-color="#5658f9"/><stop offset="0.68" stop-color="#4f54e9"/><stop offset="0.8" stop-color="#434dcd"/><stop offset="0.93" stop-color="#3344a7"/><stop offset="1" stop-color="#293f91"/></linearGradient></defs><g id="Layer_2" data-name="Layer 2"><path class="cls-1" d="M39,58.48c13.19-1.6,29.33,3.09,17.5,15.26s-32.91,27.43-35.11,29.08c-3.59,2.7-6.78,2.55-4.31-4.06C20.83,88.6,32,59,32,59A62.33,62.33,0,0,0,39,58.48Z"/><path class="cls-2" d="M60.56,66.16c0-7.86-17-21-36-17.44l0,.12c1.53,6.54,6.72,10.67,14.31,9.68,8.56-1.11,21.66.64,21.66,7.65Z"/><path class="cls-3" d="M38.9,58.52C25.71,60.21,21,46.71,25.71,33.84,29.06,24.7,36.22,5.39,36.22,5.39s1.83-4.17.41-5.07-4,.5-5,1.34C-2.11,30.29-3.94,45.14,3.74,51.59,16.16,62,38.9,58.52,38.9,58.52Z"/><path class="cls-4" d="M115.33,58.35v7H86.74V24.19h28.07v7H94.74v9.91h17.34v6.5H94.74V58.35Z"/><path class="cls-4" d="M148.74,65.37H141V48.32q0-3.66-1.28-5.34a4.19,4.19,0,0,0-3.54-1.68,6.69,6.69,0,0,0-2.38.46,8.91,8.91,0,0,0-2.29,1.31,10.85,10.85,0,0,0-1.94,2,7.84,7.84,0,0,0-1.28,2.55V65.37h-7.77V35h7V40.6a11.47,11.47,0,0,1,4.87-4.52,15.69,15.69,0,0,1,7.19-1.63,9.11,9.11,0,0,1,4.64,1A7.52,7.52,0,0,1,147,38.22a11.62,11.62,0,0,1,1.36,3.83,25.21,25.21,0,0,1,.38,4.35Z"/><path class="cls-4" d="M169.61,66A16.89,16.89,0,0,1,163,64.7a14.91,14.91,0,0,1-8.26-8.38,15.88,15.88,0,0,1-1.13-6,16.79,16.79,0,0,1,1.1-6.12,14.85,14.85,0,0,1,3.19-5A15.19,15.19,0,0,1,163,35.73a17,17,0,0,1,6.7-1.28,16.45,16.45,0,0,1,6.64,1.28,15.28,15.28,0,0,1,5,3.42,14.54,14.54,0,0,1,3.13,5,16.52,16.52,0,0,1,1.08,5.92c0,.5,0,1,0,1.45a5.76,5.76,0,0,1-.15,1.16H161.84a9.26,9.26,0,0,0,.87,3.19,8,8,0,0,0,1.8,2.37,7.89,7.89,0,0,0,2.5,1.51,8.08,8.08,0,0,0,2.89.52,8.88,8.88,0,0,0,4.38-1.13,6,6,0,0,0,2.82-3L183.77,58a13.54,13.54,0,0,1-5.37,5.71A16.6,16.6,0,0,1,169.61,66Zm7.89-18.33A8.05,8.05,0,0,0,175,42.14a7.91,7.91,0,0,0-10.76,0,7.83,7.83,0,0,0-1.71,2.38,8.08,8.08,0,0,0-.78,3.07Z"/><path class="cls-4" d="M208.36,41.7A15.32,15.32,0,0,0,202,43.07,8,8,0,0,0,198,47V65.37h-7.77V35h7.13v6.49a14.07,14.07,0,0,1,1.92-2.81,14.76,14.76,0,0,1,2.38-2.18,11.38,11.38,0,0,1,2.58-1.42,7.31,7.31,0,0,1,2.52-.49h1a3.08,3.08,0,0,1,.61.06Z"/><path class="cls-5" d="M212.65,23h7.77V55.62a3.83,3.83,0,0,0,.81,2.61,2.92,2.92,0,0,0,2.32.93,6.05,6.05,0,0,0,1.54-.23,10,10,0,0,0,1.59-.58l1,5.92a15.15,15.15,0,0,1-3.66,1.15,20,20,0,0,1-3.77.41,7.79,7.79,0,0,1-5.65-1.94,7.35,7.35,0,0,1-2-5.54Z"/><path class="cls-5" d="M245.18,66a16.89,16.89,0,0,1-6.61-1.25,15.12,15.12,0,0,1-5-3.39,14.93,14.93,0,0,1-3.22-5,15.88,15.88,0,0,1-1.13-6,16.79,16.79,0,0,1,1.1-6.12,14.85,14.85,0,0,1,3.19-5,15.19,15.19,0,0,1,5.07-3.45,16.92,16.92,0,0,1,6.7-1.28,16.45,16.45,0,0,1,6.64,1.28,15.28,15.28,0,0,1,5,3.42,14.54,14.54,0,0,1,3.13,5,16.51,16.51,0,0,1,1.07,5.92c0,.5,0,1,0,1.45a6.58,6.58,0,0,1-.15,1.16H237.41a9.26,9.26,0,0,0,.87,3.19,7.87,7.87,0,0,0,1.8,2.37,7.73,7.73,0,0,0,2.49,1.51,8.18,8.18,0,0,0,2.9.52,8.88,8.88,0,0,0,4.38-1.13,6,6,0,0,0,2.81-3L259.33,58A13.52,13.52,0,0,1,254,63.71,16.62,16.62,0,0,1,245.18,66Zm7.89-18.33a8.05,8.05,0,0,0-2.52-5.48,7.73,7.73,0,0,0-5.42-2.06,7.67,7.67,0,0,0-5.34,2.09,7.83,7.83,0,0,0-1.71,2.38,8.08,8.08,0,0,0-.78,3.07Z"/><path class="cls-5" d="M294.07,65.37H286.3V48.32q0-3.66-1.27-5.34a4.19,4.19,0,0,0-3.54-1.68,6.61,6.61,0,0,0-2.38.46,8.75,8.75,0,0,0-2.29,1.31,10.53,10.53,0,0,0-1.94,2,7.84,7.84,0,0,0-1.28,2.55V65.37h-7.77V35h7V40.6a11.47,11.47,0,0,1,4.87-4.52,15.63,15.63,0,0,1,7.19-1.63,9.13,9.13,0,0,1,4.64,1,7.41,7.41,0,0,1,2.78,2.72,11.63,11.63,0,0,1,1.37,3.83,25.21,25.21,0,0,1,.37,4.35Z"/><path class="cls-5" d="M298.94,50.17a16.43,16.43,0,0,1,1.11-6,14.55,14.55,0,0,1,3.19-5,15.5,15.5,0,0,1,5-3.42A16.7,16.7,0,0,1,315,34.45a16,16,0,0,1,8.5,2.15,13.71,13.71,0,0,1,5.25,5.63l-7.6,2.32A6.87,6.87,0,0,0,318.49,42a7.29,7.29,0,0,0-3.6-.9,7.48,7.48,0,0,0-3.13.66,7.83,7.83,0,0,0-2.52,1.86,8.4,8.4,0,0,0-1.68,2.87,10.74,10.74,0,0,0-.61,3.71,10.25,10.25,0,0,0,.64,3.71,9,9,0,0,0,1.71,2.9,7.47,7.47,0,0,0,9.45,1.51,5.85,5.85,0,0,0,2.47-2.55l7.59,2.32a12.72,12.72,0,0,1-5.16,5.68A16.23,16.23,0,0,1,315,66a16.67,16.67,0,0,1-6.67-1.28,15.41,15.41,0,0,1-5-3.45,15.21,15.21,0,0,1-3.21-5A16.08,16.08,0,0,1,298.94,50.17Z"/><path class="cls-5" d="M347.37,66a16.89,16.89,0,0,1-6.61-1.25,15.12,15.12,0,0,1-5-3.39,14.93,14.93,0,0,1-3.22-5,15.88,15.88,0,0,1-1.13-6,16.79,16.79,0,0,1,1.1-6.12,14.7,14.7,0,0,1,3.19-5,15.19,15.19,0,0,1,5.07-3.45,16.92,16.92,0,0,1,6.7-1.28,16.49,16.49,0,0,1,6.64,1.28,15.28,15.28,0,0,1,5,3.42,14.7,14.7,0,0,1,3.13,5,16.51,16.51,0,0,1,1.07,5.92c0,.5,0,1,0,1.45a5.83,5.83,0,0,1-.14,1.16H339.6a9.26,9.26,0,0,0,.87,3.19,7.87,7.87,0,0,0,4.29,3.88,8.18,8.18,0,0,0,2.9.52A8.88,8.88,0,0,0,352,59.13a6,6,0,0,0,2.81-3L361.52,58a13.52,13.52,0,0,1-5.36,5.71A16.65,16.65,0,0,1,347.37,66Zm7.89-18.33a8.09,8.09,0,0,0-2.52-5.48,7.74,7.74,0,0,0-5.43-2.06A7.67,7.67,0,0,0,342,42.17a7.83,7.83,0,0,0-1.71,2.38,8.28,8.28,0,0,0-.79,3.07Z"/><path d="M174.63,85.81V74.29h4.2a5.63,5.63,0,0,1,1.85.26,2.77,2.77,0,0,1,1.15.7,2.5,2.5,0,0,1,.6,1,4.51,4.51,0,0,1,.16,1.23,2.94,2.94,0,0,1-.39,1.58,2.82,2.82,0,0,1-1,1,4.37,4.37,0,0,1-1.41.51,9.49,9.49,0,0,1-1.59.14h-2.47v5.09Zm3.58-6a9.59,9.59,0,0,0,1.38-.09,3.05,3.05,0,0,0,1-.36,1.81,1.81,0,0,0,.65-.72,2.57,2.57,0,0,0,.24-1.19,2,2,0,0,0-.72-1.65,3.61,3.61,0,0,0-2.26-.56h-2.82v4.57Z"/><path d="M191.92,80.58v5.23l-1.09,0V74.29h4.51a5.08,5.08,0,0,1,2.92.71,2.64,2.64,0,0,1,1,2.31,3,3,0,0,1-.43,1.73,3.42,3.42,0,0,1-1.44,1.09,1.84,1.84,0,0,1,.8.51,2.27,2.27,0,0,1,.44.77,4.45,4.45,0,0,1,.18.91c0,.32,0,.63.05.93s0,.8.06,1.09a6.47,6.47,0,0,0,.1.7,1.7,1.7,0,0,0,.13.43.75.75,0,0,0,.19.23v.09l-1.2,0a2.11,2.11,0,0,1-.24-.8c-.05-.34-.09-.7-.11-1.07s0-.74-.07-1.09a4.63,4.63,0,0,0-.09-.86,1.72,1.72,0,0,0-.31-.75,1.4,1.4,0,0,0-.52-.42,2.07,2.07,0,0,0-.68-.19,5,5,0,0,0-.78,0Zm3.39-.93a4.49,4.49,0,0,0,1.13-.13,2.33,2.33,0,0,0,.9-.41,1.91,1.91,0,0,0,.61-.71,2.22,2.22,0,0,0,.23-1,2.07,2.07,0,0,0-.24-1,1.71,1.71,0,0,0-.62-.66,2.79,2.79,0,0,0-.89-.34,6,6,0,0,0-1.05-.09h-3.46v4.43Z"/><path d="M207.47,80.07a7.85,7.85,0,0,1,.35-2.37,5.82,5.82,0,0,1,1-1.93,4.87,4.87,0,0,1,1.67-1.3,5.18,5.18,0,0,1,2.29-.48,5.42,5.42,0,0,1,2.35.47,4.66,4.66,0,0,1,1.7,1.29,5.72,5.72,0,0,1,1,1.94,8.3,8.3,0,0,1,.34,2.38,8.07,8.07,0,0,1-.34,2.34,5.7,5.7,0,0,1-1,1.92,4.81,4.81,0,0,1-1.68,1.3,5.92,5.92,0,0,1-4.67,0,4.72,4.72,0,0,1-1.68-1.3,5.51,5.51,0,0,1-1-1.92A8.07,8.07,0,0,1,207.47,80.07Zm5.38,5.12a4.13,4.13,0,0,0,1.93-.43,3.84,3.84,0,0,0,1.33-1.13,4.8,4.8,0,0,0,.76-1.63,7.25,7.25,0,0,0,.25-1.93,7.58,7.58,0,0,0-.29-2.16,4.82,4.82,0,0,0-.86-1.62,3.59,3.59,0,0,0-1.36-1,4.3,4.3,0,0,0-1.79-.36,3.93,3.93,0,0,0-1.91.44,3.78,3.78,0,0,0-1.33,1.14,4.68,4.68,0,0,0-.77,1.64,7.27,7.27,0,0,0-.25,1.94,7.34,7.34,0,0,0,.25,2,4.63,4.63,0,0,0,.77,1.63,3.73,3.73,0,0,0,1.33,1.12A4.12,4.12,0,0,0,212.85,85.19Z"/><path d="M226.66,85.81V74.29h7.42v.93h-6.33v4.16h5.76v.93h-5.76v5.5Z"/><path d="M242.06,85.81V74.29h7.67v.93h-6.58v4.16h5.94v.93h-5.94v4.57h6.74v.93Z"/><path d="M258.69,82.37a3.44,3.44,0,0,0,.34,1.3,2.73,2.73,0,0,0,.72.88,3,3,0,0,0,1,.48,4.41,4.41,0,0,0,1.23.16,4,4,0,0,0,1.33-.2,2.37,2.37,0,0,0,.91-.52,2,2,0,0,0,.52-.76,2.49,2.49,0,0,0,.17-.91,1.76,1.76,0,0,0-.31-1.09,2.39,2.39,0,0,0-.79-.68,5.23,5.23,0,0,0-1.12-.42l-1.29-.31a13,13,0,0,1-1.3-.36,4.35,4.35,0,0,1-1.12-.56,2.79,2.79,0,0,1-.79-.91,2.87,2.87,0,0,1-.31-1.4,2.84,2.84,0,0,1,1-2.14,3.51,3.51,0,0,1,1.22-.69,5.2,5.2,0,0,1,1.7-.25,4.85,4.85,0,0,1,1.7.27,3.39,3.39,0,0,1,1.21.74,3.09,3.09,0,0,1,.72,1.1,3.65,3.65,0,0,1,.24,1.33h-1a2.66,2.66,0,0,0-.23-1.14,2.22,2.22,0,0,0-.63-.78,2.47,2.47,0,0,0-.92-.45,3.7,3.7,0,0,0-1.05-.15,3.59,3.59,0,0,0-1.4.24,2.41,2.41,0,0,0-.91.6,2.05,2.05,0,0,0-.46.81,2.11,2.11,0,0,0-.05.9,1.61,1.61,0,0,0,.45.89,2.91,2.91,0,0,0,.86.56,7.13,7.13,0,0,0,1.13.35c.41.09.83.18,1.26.29a11.89,11.89,0,0,1,1.24.36,3.46,3.46,0,0,1,1.06.56,2.55,2.55,0,0,1,.75.9,3.14,3.14,0,0,1,.28,1.38,3,3,0,0,1-1.11,2.48,4.83,4.83,0,0,1-3.1.88,5.62,5.62,0,0,1-1.67-.23,3.63,3.63,0,0,1-1.32-.7,3.29,3.29,0,0,1-.88-1.17,4.1,4.1,0,0,1-.31-1.64Z"/><path d="M274.86,82.37a3.44,3.44,0,0,0,.35,1.3,2.6,2.6,0,0,0,.72.88,2.86,2.86,0,0,0,1,.48,4.53,4.53,0,0,0,1.24.16,4,4,0,0,0,1.32-.2,2.41,2.41,0,0,0,.92-.52,2.1,2.1,0,0,0,.52-.76,2.49,2.49,0,0,0,.16-.91,1.83,1.83,0,0,0-.3-1.09A2.5,2.5,0,0,0,280,81a5.44,5.44,0,0,0-1.12-.42l-1.3-.31q-.66-.15-1.29-.36a4.19,4.19,0,0,1-1.12-.56,2.81,2.81,0,0,1-.8-.91,2.88,2.88,0,0,1-.3-1.4,2.77,2.77,0,0,1,.25-1.15,2.89,2.89,0,0,1,.73-1,3.65,3.65,0,0,1,1.23-.69A5.14,5.14,0,0,1,278,74a4.91,4.91,0,0,1,1.71.27,3.48,3.48,0,0,1,1.21.74,3.09,3.09,0,0,1,.72,1.1,3.65,3.65,0,0,1,.24,1.33h-1a2.52,2.52,0,0,0-.24-1.14,2,2,0,0,0-.63-.78,2.43,2.43,0,0,0-.91-.45,3.72,3.72,0,0,0-1.06-.15,3.62,3.62,0,0,0-1.4.24,2.37,2.37,0,0,0-.9.6,1.94,1.94,0,0,0-.46.81,1.84,1.84,0,0,0-.05.9,1.49,1.49,0,0,0,.45.89,2.78,2.78,0,0,0,.86.56,6.82,6.82,0,0,0,1.13.35c.41.09.83.18,1.25.29a11.89,11.89,0,0,1,1.24.36,3.52,3.52,0,0,1,1.07.56,2.43,2.43,0,0,1,.74.9,3.41,3.41,0,0,1-.82,3.86,4.86,4.86,0,0,1-3.11.88,5.55,5.55,0,0,1-1.66-.23,3.76,3.76,0,0,1-1.33-.7,3.38,3.38,0,0,1-.87-1.17,3.93,3.93,0,0,1-.31-1.64Z"/><path d="M291,85.81V74.29h1.08V85.81Z"/><path d="M301,80.07a7.85,7.85,0,0,1,.35-2.37,5.64,5.64,0,0,1,1-1.93,4.87,4.87,0,0,1,1.67-1.3A5.16,5.16,0,0,1,306.3,74a5.43,5.43,0,0,1,2.36.47,4.66,4.66,0,0,1,1.7,1.29,5.72,5.72,0,0,1,1,1.94,8.3,8.3,0,0,1,.34,2.38,8.07,8.07,0,0,1-.34,2.34,5.7,5.7,0,0,1-1,1.92,4.81,4.81,0,0,1-1.68,1.3,5.92,5.92,0,0,1-4.67,0,4.64,4.64,0,0,1-1.68-1.3,5.51,5.51,0,0,1-1-1.92A7.74,7.74,0,0,1,301,80.07Zm5.38,5.12a4.13,4.13,0,0,0,1.93-.43,3.84,3.84,0,0,0,1.33-1.13,4.8,4.8,0,0,0,.76-1.63,7.76,7.76,0,0,0-.05-4.09,4.63,4.63,0,0,0-.85-1.62,3.59,3.59,0,0,0-1.36-1,4.34,4.34,0,0,0-1.79-.36,3.93,3.93,0,0,0-1.91.44,3.78,3.78,0,0,0-1.33,1.14,4.68,4.68,0,0,0-.77,1.64,7.27,7.27,0,0,0-.25,1.94,7.34,7.34,0,0,0,.25,2,4.63,4.63,0,0,0,.77,1.63,3.73,3.73,0,0,0,1.33,1.12A4.12,4.12,0,0,0,306.37,85.19Z"/><path d="M321.38,75.76h0v10h-1.08V74.29h1.23l6.65,10.06h0V74.29h1.08V85.81H328Z"/><path d="M337.18,85.81l4.53-11.52h1.23l4.42,11.52h-1.12l-1.33-3.62h-5.25l-1.36,3.62ZM340,81.27h4.51l-2.25-6Z"/><path d="M355.31,85.81V74.29h1.09V84.88h6.18v.93Z"/></g></svg>